<svg xmlns="http://www.w3.org/2000/svg" width="410" height="404" viewBox="0 0 410 404" fill="none">
  <path d="M399.641 59.5246L215.643 388.545C211.844 395.338 202.084 395.378 198.228 388.618L10.5817 59.5563C6.38087 52.1896 12.6802 43.2665 20.9776 44.7586L205.223 77.6824C206.398 77.8924 207.601 77.8904 208.776 77.6763L389.476 44.8058C397.742 43.2894 404.07 52.1434 399.867 59.5177L399.641 59.5246Z" fill="url(#paint0_linear)"/>
  <path d="M292.965 1.5744L156.801 28.2552C155.563 28.5005 154.453 29.1625 153.7 30.1326L1.57938 227.276C-2.88644 233.173 2.25092 241.75 9.69847 240.267L111.765 219.324C112.94 219.084 114.088 218.62 115.103 217.953L326.429 79.1126C333.806 74.2747 329.274 63.2601 320.952 64.8479L219.555 84.4928C218.36 84.721 217.406 85.5305 217.051 86.7037L186.82 186.812C184.675 193.809 193.073 198.745 197.866 193.037L301.05 71.6265C306.49 65.3726 300.325 55.7721 292.273 57.2156L216.036 71.4912C214.81 71.7186 213.738 72.4177 213.085 73.4449L134.155 197.626C129.273 205.521 140.014 213.748 145.335 206.455L217.924 109.72C218.611 108.796 219.618 108.162 220.75 107.945L302.004 92.5362C310.394 91.0039 314.368 81.0263 308.402 74.7306L246.508 9.04305C245.494 7.98969 244.11 7.36903 242.645 7.28805L295.908 4.29208C304.328 3.80369 309.023 -6.1201 302.682 -11.3988L292.965 1.5744Z" fill="url(#paint1_linear)"/>
  <defs>
    <linearGradient id="paint0_linear" x1="6.00017" y1="32.9999" x2="235" y2="344" gradientUnits="userSpaceOnUse">
      <stop stop-color="#41D1FF"/>
      <stop offset="1" stop-color="#BD34FE"/>
    </linearGradient>
    <linearGradient id="paint1_linear" x1="194.651" y1="8.81818" x2="236.076" y2="292.989" gradientUnits="userSpaceOnUse">
      <stop stop-color="#FFEA83"/>
      <stop offset="0.0833333" stop-color="#FFDD35"/>
      <stop offset="1" stop-color="#FFA800"/>
    </linearGradient>
  </defs>
</svg>
